# Blender 3.6.1
# www.blender.org
mtllib untitled.mtl
o Mesh001
v 0.654315 2.285472 -4.643998
v 0.654315 5.303674 -4.643998
v 0.654315 5.303674 -4.463672
v 0.654315 2.285472 -4.463671
v 0.642771 5.315218 -4.643998
v -1.487102 5.315218 -4.643993
v -1.487102 5.315218 -4.463667
v 0.642771 5.315218 -4.463672
v -1.487102 2.273928 -4.643993
v 0.642771 2.273928 -4.643998
v 0.642771 2.273928 -4.463671
v -1.487102 2.273928 -4.463666
v -1.498646 5.303674 -4.643993
v -1.498646 2.285472 -4.643993
v -1.498646 2.285472 -4.463666
v -1.498646 5.303674 -4.463667
v 0.654315 2.285472 -4.643998
v 0.653436 2.281055 -4.643998
v 0.652376 2.280944 -4.648526
v 0.653436 2.285472 -4.648415
v 0.653436 2.281055 -4.643998
v 0.650934 2.277310 -4.643998
v 0.650347 2.277897 -4.648295
v 0.652376 2.280944 -4.648526
v 0.653436 2.285472 -4.648415
v 0.652376 2.280944 -4.648526
v 0.650347 2.281174 -4.651573
v 0.650934 2.285472 -4.652160
v 0.652376 2.280944 -4.648526
v 0.650347 2.277897 -4.648295
v 0.649436 2.278807 -4.650661
v 0.650347 2.281174 -4.651573
v 0.642771 2.273928 -4.643998
v 0.642771 2.274807 -4.648415
v 0.647299 2.275868 -4.648526
v 0.647189 2.274807 -4.643998
v 0.642771 2.274807 -4.648415
v 0.642771 2.277310 -4.652160
v 0.647070 2.277897 -4.651573
v 0.647299 2.275868 -4.648526
v 0.647189 2.274807 -4.643998
v 0.647299 2.275868 -4.648526
v 0.650347 2.277897 -4.648295
v 0.650934 2.277310 -4.643998
v 0.647299 2.275868 -4.648526
v 0.647070 2.277897 -4.651573
v 0.649436 2.278807 -4.650661
v 0.650347 2.277897 -4.648295
v 0.642771 2.285472 -4.655540
v 0.647189 2.285472 -4.654663
v 0.647299 2.280944 -4.653602
v 0.642771 2.281055 -4.654663
v 0.647189 2.285472 -4.654663
v 0.650934 2.285472 -4.652160
v 0.650347 2.281174 -4.651573
v 0.647299 2.280944 -4.653602
v 0.642771 2.281055 -4.654663
v 0.647299 2.280944 -4.653602
v 0.647070 2.277897 -4.651573
v 0.642771 2.277310 -4.652160
v 0.647299 2.280944 -4.653602
v 0.650347 2.281174 -4.651573
v 0.649436 2.278807 -4.650661
v 0.647070 2.277897 -4.651573
v 0.642771 5.315218 -4.643998
v 0.647189 5.314339 -4.643998
v 0.647299 5.313278 -4.648527
v 0.642771 5.314339 -4.648416
v 0.647189 5.314339 -4.643998
v 0.650934 5.311836 -4.643998
v 0.650347 5.311249 -4.648296
v 0.647299 5.313278 -4.648527
v 0.642771 5.314339 -4.648416
v 0.647299 5.313278 -4.648527
v 0.647070 5.311249 -4.651574
v 0.642771 5.311836 -4.652161
v 0.647299 5.313278 -4.648527
v 0.650347 5.311249 -4.648296
v 0.649436 5.310339 -4.650662
v 0.647070 5.311249 -4.651574
v 0.654315 5.303674 -4.643998
v 0.653436 5.303674 -4.648416
v 0.652376 5.308202 -4.648527
v 0.653436 5.308091 -4.643998
v 0.653436 5.303674 -4.648416
v 0.650934 5.303674 -4.652161
v 0.650347 5.307973 -4.651574
v 0.652376 5.308202 -4.648527
v 0.653436 5.308091 -4.643998
v 0.652376 5.308202 -4.648527
v 0.650347 5.311249 -4.648296
v 0.650934 5.311836 -4.643998
v 0.652376 5.308202 -4.648527
v 0.650347 5.307973 -4.651574
v 0.649436 5.310339 -4.650662
v 0.650347 5.311249 -4.648296
v 0.642771 5.303674 -4.655541
v 0.642771 5.308091 -4.654663
v 0.647299 5.308202 -4.653603
v 0.647189 5.303674 -4.654663
v 0.642771 5.308091 -4.654663
v 0.642771 5.311836 -4.652161
v 0.647070 5.311249 -4.651574
v 0.647299 5.308202 -4.653603
v 0.647189 5.303674 -4.654663
v 0.647299 5.308202 -4.653603
v 0.650347 5.307973 -4.651574
v 0.650934 5.303674 -4.652161
v 0.647299 5.308202 -4.653603
v 0.647070 5.311249 -4.651574
v 0.649436 5.310339 -4.650662
v 0.650347 5.307973 -4.651574
v -1.498646 5.303674 -4.643993
v -1.497767 5.308091 -4.643993
v -1.496707 5.308202 -4.648522
v -1.497767 5.303674 -4.648412
v -1.497767 5.308091 -4.643993
v -1.495265 5.311836 -4.643993
v -1.494678 5.311249 -4.648293
v -1.496707 5.308202 -4.648522
v -1.497767 5.303674 -4.648412
v -1.496707 5.308202 -4.648522
v -1.494678 5.307973 -4.651569
v -1.495265 5.303674 -4.652156
v -1.496707 5.308202 -4.648522
v -1.494678 5.311249 -4.648293
v -1.493767 5.310339 -4.650659
v -1.494678 5.307973 -4.651569
v -1.487102 5.315218 -4.643993
v -1.487102 5.314339 -4.648412
v -1.491630 5.313278 -4.648522
v -1.491520 5.314339 -4.643993
v -1.487102 5.314339 -4.648412
v -1.487102 5.311836 -4.652156
v -1.491401 5.311249 -4.651569
v -1.491630 5.313278 -4.648522
v -1.491520 5.314339 -4.643993
v -1.491630 5.313278 -4.648522
v -1.494678 5.311249 -4.648293
v -1.495265 5.311836 -4.643993
v -1.491630 5.313278 -4.648522
v -1.491401 5.311249 -4.651569
v -1.493767 5.310339 -4.650659
v -1.494678 5.311249 -4.648293
v -1.487102 5.303674 -4.655538
v -1.491520 5.303674 -4.654658
v -1.491630 5.308202 -4.653598
v -1.487102 5.308091 -4.654658
v -1.491520 5.303674 -4.654658
v -1.495265 5.303674 -4.652156
v -1.494678 5.307973 -4.651569
v -1.491630 5.308202 -4.653598
v -1.487102 5.308091 -4.654658
v -1.491630 5.308202 -4.653598
v -1.491401 5.311249 -4.651569
v -1.487102 5.311836 -4.652156
v -1.491630 5.308202 -4.653598
v -1.494678 5.307973 -4.651569
v -1.493767 5.310339 -4.650659
v -1.491401 5.311249 -4.651569
v -1.487102 2.285472 -4.655538
v -1.487102 2.281055 -4.654658
v -1.491630 2.280944 -4.653597
v -1.491520 2.285472 -4.654658
v -1.487102 2.281055 -4.654658
v -1.487102 2.277310 -4.652155
v -1.491401 2.277897 -4.651568
v -1.491630 2.280944 -4.653597
v -1.491520 2.285472 -4.654658
v -1.491630 2.280944 -4.653597
v -1.494678 2.281174 -4.651568
v -1.495265 2.285472 -4.652155
v -1.491630 2.280944 -4.653597
v -1.491401 2.277897 -4.651568
v -1.493767 2.278807 -4.650659
v -1.494678 2.281174 -4.651568
v -1.487102 2.273928 -4.643993
v -1.491520 2.274807 -4.643993
v -1.491630 2.275868 -4.648521
v -1.487102 2.274807 -4.648410
v -1.491520 2.274807 -4.643993
v -1.495265 2.277310 -4.643993
v -1.494678 2.277897 -4.648293
v -1.491630 2.275868 -4.648521
v -1.487102 2.274807 -4.648410
v -1.491630 2.275868 -4.648521
v -1.491401 2.277897 -4.651568
v -1.487102 2.277310 -4.652155
v -1.491630 2.275868 -4.648521
v -1.494678 2.277897 -4.648293
v -1.493767 2.278807 -4.650659
v -1.491401 2.277897 -4.651568
v -1.498646 2.285472 -4.643993
v -1.497767 2.285472 -4.648410
v -1.496707 2.280944 -4.648521
v -1.497767 2.281055 -4.643993
v -1.497767 2.285472 -4.648410
v -1.495265 2.285472 -4.652155
v -1.494678 2.281174 -4.651568
v -1.496707 2.280944 -4.648521
v -1.497767 2.281055 -4.643993
v -1.496707 2.280944 -4.648521
v -1.494678 2.277897 -4.648293
v -1.495265 2.277310 -4.643993
v -1.496707 2.280944 -4.648521
v -1.494678 2.281174 -4.651568
v -1.493767 2.278807 -4.650659
v -1.494678 2.277897 -4.648293
v 0.642771 2.273928 -4.643998
v -1.487102 2.273928 -4.643993
v -1.487102 2.274807 -4.648410
v 0.642771 2.274807 -4.648415
v 0.642771 2.274807 -4.648415
v -1.487102 2.274807 -4.648410
v -1.487102 2.277310 -4.652155
v 0.642771 2.277310 -4.652160
v 0.642771 2.277310 -4.652160
v -1.487102 2.277310 -4.652155
v -1.487102 2.281055 -4.654658
v 0.642771 2.281055 -4.654663
v 0.642771 2.281055 -4.654663
v -1.487102 2.281055 -4.654658
v -1.487102 2.285472 -4.655538
v 0.642771 2.285472 -4.655540
v 0.642771 2.285472 -4.655540
v 0.642771 5.303674 -4.655541
v 0.647189 5.303674 -4.654663
v 0.647189 2.285472 -4.654663
v 0.647189 2.285472 -4.654663
v 0.647189 5.303674 -4.654663
v 0.650934 5.303674 -4.652161
v 0.650934 2.285472 -4.652160
v 0.650934 2.285472 -4.652160
v 0.650934 5.303674 -4.652161
v 0.653436 5.303674 -4.648416
v 0.653436 2.285472 -4.648415
v 0.653436 2.285472 -4.648415
v 0.653436 5.303674 -4.648416
v 0.654315 5.303674 -4.643998
v 0.654315 2.285472 -4.643998
v 0.642771 5.303674 -4.655541
v -1.487102 5.303674 -4.655538
v -1.487102 5.308091 -4.654658
v 0.642771 5.308091 -4.654663
v 0.642771 5.308091 -4.654663
v -1.487102 5.308091 -4.654658
v -1.487102 5.311836 -4.652156
v 0.642771 5.311836 -4.652161
v 0.642771 5.311836 -4.652161
v -1.487102 5.311836 -4.652156
v -1.487102 5.314339 -4.648412
v 0.642771 5.314339 -4.648416
v 0.642771 5.314339 -4.648416
v -1.487102 5.314339 -4.648412
v -1.487102 5.315218 -4.643993
v 0.642771 5.315218 -4.643998
v -1.487102 5.303674 -4.655538
v -1.487102 2.285472 -4.655538
v -1.491520 2.285472 -4.654658
v -1.491520 5.303674 -4.654658
v -1.491520 5.303674 -4.654658
v -1.491520 2.285472 -4.654658
v -1.495265 2.285472 -4.652155
v -1.495265 5.303674 -4.652156
v -1.495265 5.303674 -4.652156
v -1.495265 2.285472 -4.652155
v -1.497767 2.285472 -4.648410
v -1.497767 5.303674 -4.648412
v -1.497767 5.303674 -4.648412
v -1.497767 2.285472 -4.648410
v -1.498646 2.285472 -4.643993
v -1.498646 5.303674 -4.643993
v -1.487102 2.273928 -4.643993
v -1.487102 2.273928 -4.463666
v -1.491519 2.274807 -4.463666
v -1.491520 2.274807 -4.643993
v -1.491520 2.274807 -4.643993
v -1.491519 2.274807 -4.463666
v -1.495264 2.277310 -4.463666
v -1.495265 2.277310 -4.643993
v -1.495265 2.277310 -4.643993
v -1.495264 2.277310 -4.463666
v -1.497767 2.281055 -4.463666
v -1.497767 2.281055 -4.643993
v -1.497767 2.281055 -4.643993
v -1.497767 2.281055 -4.463666
v -1.498646 2.285472 -4.463666
v -1.498646 2.285472 -4.643993
v -1.487102 5.315218 -4.463667
v -1.487102 5.315218 -4.643993
v -1.491520 5.314339 -4.643993
v -1.491519 5.314339 -4.463667
v -1.491519 5.314339 -4.463667
v -1.491520 5.314339 -4.643993
v -1.495265 5.311836 -4.643993
v -1.495264 5.311836 -4.463667
v -1.495264 5.311836 -4.463667
v -1.495265 5.311836 -4.643993
v -1.497767 5.308091 -4.643993
v -1.497767 5.308091 -4.463667
v -1.497767 5.308091 -4.463667
v -1.497767 5.308091 -4.643993
v -1.498646 5.303674 -4.643993
v -1.498646 5.303674 -4.463667
v 0.654315 2.285472 -4.643998
v 0.654315 2.285472 -4.463671
v 0.653436 2.281055 -4.463671
v 0.653436 2.281055 -4.643998
v 0.653436 2.281055 -4.643998
v 0.653436 2.281055 -4.463671
v 0.650934 2.277310 -4.463671
v 0.650934 2.277310 -4.643998
v 0.650934 2.277310 -4.643998
v 0.650934 2.277310 -4.463671
v 0.647189 2.274807 -4.463671
v 0.647189 2.274807 -4.643998
v 0.647189 2.274807 -4.643998
v 0.647189 2.274807 -4.463671
v 0.642771 2.273928 -4.463671
v 0.642771 2.273928 -4.643998
v 0.642771 5.315218 -4.643998
v 0.642771 5.315218 -4.463672
v 0.647189 5.314339 -4.463672
v 0.647189 5.314339 -4.643998
v 0.647189 5.314339 -4.643998
v 0.647189 5.314339 -4.463672
v 0.650934 5.311836 -4.463672
v 0.650934 5.311836 -4.643998
v 0.650934 5.311836 -4.643998
v 0.650934 5.311836 -4.463672
v 0.653436 5.308091 -4.463672
v 0.653436 5.308091 -4.643998
v 0.653436 5.308091 -4.643998
v 0.653436 5.308091 -4.463672
v 0.654315 5.303674 -4.463672
v 0.654315 5.303674 -4.643998
v 0.642771 2.285472 -4.655540
v -1.487102 2.285472 -4.655538
v -1.487102 5.303674 -4.655538
v 0.642771 5.303674 -4.655541
vn 1.0000 -0.0000 -0.0000
vn -0.0000 1.0000 -0.0000
vn -0.0000 -1.0000 -0.0000
vn -1.0000 -0.0000 -0.0000
vn 0.9571 -0.2049 -0.2049
vn 0.9569 -0.1904 -0.2193
vn 0.9569 -0.2193 -0.1904
vn 0.8152 -0.5498 -0.1820
vn 0.8169 -0.5459 -0.1861
vn 0.8150 -0.5504 -0.1813
vn 0.8130 -0.5547 -0.1767
vn 0.8152 -0.1819 -0.5498
vn 0.8130 -0.1767 -0.5548
vn 0.8150 -0.1813 -0.5504
vn 0.8170 -0.1861 -0.5458
vn 0.7167 -0.4932 -0.4931
vn 0.7164 -0.5128 -0.4731
vn 0.7164 -0.4732 -0.5127
vn 0.2050 -0.9570 -0.2051
vn 0.2195 -0.9568 -0.1904
vn 0.1904 -0.9568 -0.2196
vn 0.1820 -0.8152 -0.5499
vn 0.1861 -0.8169 -0.5460
vn 0.1814 -0.8149 -0.5505
vn 0.1769 -0.8130 -0.5547
vn 0.5499 -0.8152 -0.1821
vn 0.5547 -0.8130 -0.1770
vn 0.5504 -0.8149 -0.1815
vn 0.5460 -0.8168 -0.1861
vn 0.4931 -0.7168 -0.4930
vn 0.4730 -0.7165 -0.5127
vn 0.5128 -0.7165 -0.4729
vn 0.2049 -0.2049 -0.9571
vn 0.1901 -0.2196 -0.9569
vn 0.2196 -0.1902 -0.9569
vn 0.5498 -0.1821 -0.8152
vn 0.5460 -0.1861 -0.8169
vn 0.5504 -0.1815 -0.8150
vn 0.5546 -0.1770 -0.8131
vn 0.1820 -0.5499 -0.8152
vn 0.1769 -0.5547 -0.8130
vn 0.1814 -0.5504 -0.8149
vn 0.1861 -0.5460 -0.8169
vn 0.4931 -0.4931 -0.7168
vn 0.5126 -0.4731 -0.7165
vn 0.4731 -0.5127 -0.7165
vn 0.2050 0.9570 -0.2050
vn 0.1904 0.9568 -0.2195
vn 0.2195 0.9568 -0.1904
vn 0.5498 0.8152 -0.1820
vn 0.5460 0.8169 -0.1861
vn 0.5504 0.8150 -0.1815
vn 0.5546 0.8131 -0.1770
vn 0.1820 0.8152 -0.5499
vn 0.1769 0.8130 -0.5547
vn 0.1814 0.8149 -0.5504
vn 0.1861 0.8169 -0.5460
vn 0.4931 0.7168 -0.4930
vn 0.5127 0.7166 -0.4729
vn 0.4730 0.7166 -0.5127
vn 0.9571 0.2049 -0.2049
vn 0.9569 0.2193 -0.1904
vn 0.9569 0.1904 -0.2193
vn 0.8153 0.1819 -0.5498
vn 0.8170 0.1861 -0.5458
vn 0.8150 0.1813 -0.5504
vn 0.8131 0.1767 -0.5547
vn 0.8152 0.5498 -0.1819
vn 0.8131 0.5547 -0.1767
vn 0.8150 0.5504 -0.1813
vn 0.8170 0.5459 -0.1861
vn 0.7167 0.4932 -0.4930
vn 0.7164 0.4733 -0.5126
vn 0.7164 0.5128 -0.4731
vn 0.2049 0.2049 -0.9571
vn 0.2193 0.1904 -0.9569
vn 0.1903 0.2194 -0.9569
vn 0.1819 0.5498 -0.8153
vn 0.1861 0.5458 -0.8170
vn 0.1813 0.5503 -0.8150
vn 0.1767 0.5547 -0.8131
vn 0.5497 0.1820 -0.8153
vn 0.5546 0.1769 -0.8131
vn 0.5503 0.1814 -0.8150
vn 0.5458 0.1861 -0.8170
vn 0.4930 0.4931 -0.7168
vn 0.4731 0.5127 -0.7165
vn 0.5125 0.4732 -0.7165
vn -0.9571 0.2049 -0.2049
vn -0.9569 0.1904 -0.2193
vn -0.9569 0.2194 -0.1904
vn -0.8153 0.5498 -0.1819
vn -0.8170 0.5458 -0.1861
vn -0.8150 0.5504 -0.1813
vn -0.8131 0.5547 -0.1767
vn -0.8152 0.1819 -0.5498
vn -0.8131 0.1768 -0.5547
vn -0.8150 0.1813 -0.5504
vn -0.8170 0.1861 -0.5459
vn -0.7167 0.4932 -0.4930
vn -0.7165 0.5128 -0.4730
vn -0.7164 0.4732 -0.5127
vn -0.2050 0.9570 -0.2050
vn -0.2196 0.9568 -0.1904
vn -0.1904 0.9568 -0.2195
vn -0.1820 0.8152 -0.5499
vn -0.1861 0.8169 -0.5460
vn -0.1814 0.8149 -0.5504
vn -0.1770 0.8130 -0.5547
vn -0.5498 0.8152 -0.1820
vn -0.5546 0.8131 -0.1770
vn -0.5504 0.8150 -0.1814
vn -0.5459 0.8169 -0.1861
vn -0.4930 0.7169 -0.4930
vn -0.4729 0.7166 -0.5127
vn -0.5127 0.7165 -0.4730
vn -0.2049 0.2050 -0.9571
vn -0.1904 0.2194 -0.9569
vn -0.2193 0.1905 -0.9569
vn -0.5497 0.1820 -0.8153
vn -0.5458 0.1861 -0.8170
vn -0.5503 0.1814 -0.8150
vn -0.5545 0.1769 -0.8131
vn -0.1819 0.5498 -0.8153
vn -0.1767 0.5547 -0.8131
vn -0.1813 0.5504 -0.8150
vn -0.1861 0.5458 -0.8170
vn -0.4929 0.4931 -0.7168
vn -0.5125 0.4731 -0.7166
vn -0.4730 0.5127 -0.7166
vn -0.2050 -0.2051 -0.9570
vn -0.2195 -0.1905 -0.9568
vn -0.1904 -0.2196 -0.9568
vn -0.1820 -0.5499 -0.8152
vn -0.1861 -0.5460 -0.8169
vn -0.1814 -0.5504 -0.8149
vn -0.1769 -0.5547 -0.8130
vn -0.5498 -0.1821 -0.8152
vn -0.5546 -0.1771 -0.8131
vn -0.5504 -0.1815 -0.8150
vn -0.5459 -0.1861 -0.8169
vn -0.4929 -0.4929 -0.7170
vn -0.4727 -0.5128 -0.7166
vn -0.5127 -0.4727 -0.7167
vn -0.2050 -0.9570 -0.2051
vn -0.1904 -0.9568 -0.2196
vn -0.2195 -0.9568 -0.1904
vn -0.5498 -0.8152 -0.1820
vn -0.5460 -0.8169 -0.1861
vn -0.5504 -0.8150 -0.1815
vn -0.5546 -0.8131 -0.1770
vn -0.1820 -0.8152 -0.5499
vn -0.1769 -0.8130 -0.5547
vn -0.1814 -0.8149 -0.5504
vn -0.1861 -0.8169 -0.5460
vn -0.4929 -0.7169 -0.4931
vn -0.5126 -0.7166 -0.4730
vn -0.4727 -0.7166 -0.5128
vn -0.9571 -0.2049 -0.2049
vn -0.9569 -0.2193 -0.1904
vn -0.9569 -0.1904 -0.2193
vn -0.8153 -0.1819 -0.5498
vn -0.8170 -0.1861 -0.5458
vn -0.8150 -0.1813 -0.5504
vn -0.8131 -0.1767 -0.5547
vn -0.8152 -0.5498 -0.1819
vn -0.8131 -0.5547 -0.1767
vn -0.8150 -0.5504 -0.1813
vn -0.8170 -0.5458 -0.1861
vn -0.7168 -0.4930 -0.4931
vn -0.7165 -0.4729 -0.5128
vn -0.7165 -0.5127 -0.4730
vn -0.0000 -0.9808 -0.1952
vn -0.0000 -0.8314 -0.5557
vn -0.0000 -0.5557 -0.8314
vn -0.0000 -0.1949 -0.9808
vn -0.0000 -0.1952 -0.9808
vn 0.1949 -0.0000 -0.9808
vn 0.1951 -0.0000 -0.9808
vn 0.5557 -0.0000 -0.8314
vn 0.5555 -0.0000 -0.8315
vn 0.8315 -0.0000 -0.5555
vn 0.9808 -0.0000 -0.1952
vn 0.9808 -0.0000 -0.1951
vn -0.0000 0.1951 -0.9808
vn -0.0000 0.1952 -0.9808
vn -0.0000 0.5555 -0.8315
vn -0.0000 0.8314 -0.5557
vn -0.0000 0.9808 -0.1952
vn -0.1952 -0.0000 -0.9808
vn -0.5555 -0.0000 -0.8315
vn -0.5557 -0.0000 -0.8314
vn -0.8315 -0.0000 -0.5556
vn -0.8315 -0.0000 -0.5555
vn -0.9808 -0.0000 -0.1951
vn -0.9808 -0.0000 -0.1952
vn -0.1951 -0.9808 -0.0000
vn -0.1952 -0.9808 -0.0000
vn -0.5557 -0.8314 -0.0000
vn -0.8315 -0.5555 -0.0000
vn -0.8314 -0.5557 -0.0000
vn -0.9808 -0.1952 -0.0000
vn -0.1952 0.9808 -0.0000
vn -0.5557 0.8314 -0.0000
vn -0.8314 0.5557 -0.0000
vn -0.8315 0.5555 -0.0000
vn -0.9808 0.1952 -0.0000
vn 0.9808 -0.1951 -0.0000
vn 0.9808 -0.1952 -0.0000
vn 0.8315 -0.5556 -0.0000
vn 0.8315 -0.5555 -0.0000
vn 0.5557 -0.8314 -0.0000
vn 0.1951 -0.9808 -0.0000
vn 0.1952 0.9808 -0.0000
vn 0.5557 0.8314 -0.0000
vn 0.5556 0.8314 -0.0000
vn 0.8315 0.5555 -0.0000
vn 0.9808 0.1952 -0.0000
vn -0.0000 -0.0000 -1.0000
vt -0.002249 0.059678
vt -0.002249 0.995938
vt -0.054889 0.995938
vt -0.054891 0.059678
vt 0.006430 1.002889
vt 0.985990 1.002889
vt 0.985990 1.055529
vt 0.006430 1.055529
vt 0.985989 0.052727
vt 0.006430 0.052727
vt 0.006430 0.000086
vt 0.985989 0.000086
vt 0.994669 0.995938
vt 0.994669 0.059678
vt 1.047309 0.059678
vt 1.047309 0.995938
vt -0.002249 0.058307
vt -0.000927 0.058273
vt -0.000960 0.059678
vt -0.002249 0.057146
vt -0.000994 0.057328
vt 0.001454 0.058344
vt 0.001405 0.059678
vt -0.000304 0.057610
vt 0.006430 0.054016
vt 0.004347 0.054049
vt 0.004398 0.052727
vt 0.006430 0.056128
vt 0.004453 0.054938
vt 0.002946 0.053982
vt 0.002676 0.052727
vt 0.003365 0.054672
vt 0.006430 0.059678
vt 0.004398 0.059678
vt 0.004347 0.058273
vt 0.006430 0.058307
vt 0.004453 0.057328
vt 0.003365 0.057610
vt 0.004399 1.002889
vt 0.004348 1.001567
vt 0.006430 1.001599
vt 0.002676 1.002889
vt 0.002946 1.001634
vt 0.004453 0.999483
vt 0.006430 0.999488
vt 0.003365 1.000943
vt -0.000959 0.995938
vt -0.000927 0.997343
vt -0.002249 0.997308
vt 0.001405 0.995938
vt -0.000037 0.997271
vt -0.000994 0.998288
vt -0.002249 0.998470
vt -0.000303 0.998005
vt 0.006430 0.995938
vt 0.006430 0.997308
vt 0.004348 0.997343
vt 0.004399 0.995938
vt 0.002946 0.997271
vt 0.003365 0.998005
vt 0.994669 0.997308
vt 0.993347 0.997343
vt 0.993379 0.995938
vt 0.994669 0.998470
vt 0.993414 0.998288
vt 0.990966 0.997271
vt 0.991015 0.995938
vt 0.992723 0.998005
vt 0.985990 1.001599
vt 0.988072 1.001567
vt 0.988021 1.002889
vt 0.985990 0.999488
vt 0.987967 1.000677
vt 0.989474 1.001634
vt 0.989744 1.002889
vt 0.989055 1.000943
vt 0.985990 0.995938
vt 0.988021 0.995938
vt 0.988072 0.997343
vt 0.985990 0.997308
vt 0.987967 0.998288
vt 0.989055 0.998005
vt 0.985989 0.059678
vt 0.985990 0.058307
vt 0.988072 0.058273
vt 0.988021 0.059678
vt 0.985989 0.056128
vt 0.987966 0.056133
vt 0.989474 0.058344
vt 0.991015 0.059678
vt 0.989055 0.057610
vt 0.988021 0.052727
vt 0.988072 0.054049
vt 0.985989 0.054016
vt 0.989744 0.052727
vt 0.989474 0.053982
vt 0.989055 0.054672
vt 0.993379 0.059678
vt 0.993347 0.058273
vt 0.994668 0.058307
vt 0.992457 0.058344
vt 0.993414 0.057328
vt 0.994668 0.057145
vt 0.992723 0.057610
vt 0.988021 0.000086
vt 0.989744 0.000086
vt 1.047309 0.057145
vt 1.047309 0.058307
vt 0.988021 1.055529
vt 0.989744 1.055529
vt 1.047309 0.998470
vt 1.047309 0.997308
vt -0.054891 0.058307
vt -0.054891 0.057146
vt 0.002676 0.000086
vt 0.004398 0.000086
vt 0.004399 1.055529
vt 0.002676 1.055529
vt -0.054889 0.998470
vt -0.054889 0.997308
s 1
f 1/1/1 2/2/1 3/3/1
f 1/1/1 3/3/1 4/4/1
f 5/5/2 6/6/2 7/7/2
f 5/5/2 7/7/2 8/8/2
f 9/9/3 10/10/3 11/11/3
f 9/9/3 11/11/3 12/12/3
f 13/13/4 14/14/4 15/15/4
f 13/13/4 15/15/4 16/16/4
f 17/1/5 18/17/6 19/18/5
f 17/1/5 19/18/5 20/19/7
f 21/17/8 22/20/9 23/21/10
f 21/17/8 23/21/10 24/18/11
f 25/19/12 26/18/13 27/22/14
f 25/19/12 27/22/14 28/23/15
f 29/18/16 30/21/17 31/24/16
f 29/18/16 31/24/16 32/22/18
f 33/10/19 34/25/20 35/26/19
f 33/10/19 35/26/19 36/27/21
f 37/25/22 38/28/23 39/29/24
f 37/25/22 39/29/24 40/26/25
f 41/27/26 42/26/27 43/30/28
f 41/27/26 43/30/28 44/31/29
f 45/26/30 46/29/31 47/32/30
f 45/26/30 47/32/30 48/30/32
f 49/33/33 50/34/34 51/35/33
f 49/33/33 51/35/33 52/36/35
f 53/34/36 54/23/37 55/22/38
f 53/34/36 55/22/38 56/35/39
f 57/36/40 58/35/41 59/37/42
f 57/36/40 59/37/42 60/28/43
f 61/35/44 62/22/45 63/38/44
f 61/35/44 63/38/44 64/37/46
f 65/5/47 66/39/48 67/40/47
f 65/5/47 67/40/47 68/41/49
f 69/39/50 70/42/51 71/43/52
f 69/39/50 71/43/52 72/40/53
f 73/41/54 74/40/55 75/44/56
f 73/41/54 75/44/56 76/45/57
f 77/40/58 78/43/59 79/46/58
f 77/40/58 79/46/58 80/44/60
f 81/2/61 82/47/62 83/48/61
f 81/2/61 83/48/61 84/49/63
f 85/47/64 86/50/65 87/51/66
f 85/47/64 87/51/66 88/48/67
f 89/49/68 90/48/69 91/52/70
f 89/49/68 91/52/70 92/53/71
f 93/48/72 94/51/73 95/54/72
f 93/48/72 95/54/72 96/52/74
f 97/55/75 98/56/76 99/57/75
f 97/55/75 99/57/75 100/58/77
f 101/56/78 102/45/79 103/44/80
f 101/56/78 103/44/80 104/57/81
f 105/58/82 106/57/83 107/59/84
f 105/58/82 107/59/84 108/50/85
f 109/57/86 110/44/87 111/60/86
f 109/57/86 111/60/86 112/59/88
f 113/13/89 114/61/90 115/62/89
f 113/13/89 115/62/89 116/63/91
f 117/61/92 118/64/93 119/65/94
f 117/61/92 119/65/94 120/62/95
f 121/63/96 122/62/97 123/66/98
f 121/63/96 123/66/98 124/67/99
f 125/62/100 126/65/101 127/68/100
f 125/62/100 127/68/100 128/66/102
f 129/6/103 130/69/104 131/70/103
f 129/6/103 131/70/103 132/71/105
f 133/69/106 134/72/107 135/73/108
f 133/69/106 135/73/108 136/70/109
f 137/71/110 138/70/111 139/74/112
f 137/71/110 139/74/112 140/75/113
f 141/70/114 142/73/115 143/76/114
f 141/70/114 143/76/114 144/74/116
f 145/77/117 146/78/118 147/79/117
f 145/77/117 147/79/117 148/80/119
f 149/78/120 150/67/121 151/66/122
f 149/78/120 151/66/122 152/79/123
f 153/80/124 154/79/125 155/81/126
f 153/80/124 155/81/126 156/72/127
f 157/79/128 158/66/129 159/82/128
f 157/79/128 159/82/128 160/81/130
f 161/83/131 162/84/132 163/85/131
f 161/83/131 163/85/131 164/86/133
f 165/84/134 166/87/135 167/88/136
f 165/84/134 167/88/136 168/85/137
f 169/86/138 170/85/139 171/89/140
f 169/86/138 171/89/140 172/90/141
f 173/85/142 174/88/143 175/91/142
f 173/85/142 175/91/142 176/89/144
f 177/9/145 178/92/146 179/93/145
f 177/9/145 179/93/145 180/94/147
f 181/92/148 182/95/149 183/96/150
f 181/92/148 183/96/150 184/93/151
f 185/94/152 186/93/153 187/88/154
f 185/94/152 187/88/154 188/87/155
f 189/93/156 190/96/157 191/97/156
f 189/93/156 191/97/156 192/88/158
f 193/14/159 194/98/160 195/99/159
f 193/14/159 195/99/159 196/100/161
f 197/98/162 198/90/163 199/101/164
f 197/98/162 199/101/164 200/99/165
f 201/100/166 202/99/167 203/102/168
f 201/100/166 203/102/168 204/103/169
f 205/99/170 206/101/171 207/104/170
f 205/99/170 207/104/170 208/102/172
f 209/10/173 210/9/173 211/94/173
f 209/10/173 211/94/173 212/25/173
f 213/25/174 214/94/174 215/87/174
f 213/25/174 215/87/174 216/28/174
f 217/28/175 218/87/175 219/84/175
f 217/28/175 219/84/175 220/36/175
f 221/36/176 222/84/177 223/83/177
f 221/36/176 223/83/177 224/33/176
f 225/33/178 226/55/179 227/58/179
f 225/33/178 227/58/179 228/34/178
f 229/34/180 230/58/181 231/50/181
f 229/34/180 231/50/181 232/23/180
f 233/23/182 234/50/182 235/47/182
f 233/23/182 235/47/182 236/19/182
f 237/19/183 238/47/184 239/2/184
f 237/19/183 239/2/184 240/1/183
f 241/55/185 242/77/186 243/80/186
f 241/55/185 243/80/186 244/56/185
f 245/56/187 246/80/187 247/72/187
f 245/56/187 247/72/187 248/45/187
f 249/45/188 250/72/188 251/69/188
f 249/45/188 251/69/188 252/41/188
f 253/41/189 254/69/189 255/6/189
f 253/41/189 255/6/189 256/5/189
f 257/77/190 258/83/190 259/86/190
f 257/77/190 259/86/190 260/78/190
f 261/78/191 262/86/192 263/90/192
f 261/78/191 263/90/192 264/67/191
f 265/67/193 266/90/194 267/98/194
f 265/67/193 267/98/194 268/63/193
f 269/63/195 270/98/196 271/14/196
f 269/63/195 271/14/196 272/13/195
f 273/9/197 274/12/198 275/105/198
f 273/9/197 275/105/198 276/92/197
f 277/92/199 278/105/199 279/106/199
f 277/92/199 279/106/199 280/95/199
f 281/103/200 282/107/201 283/108/201
f 281/103/200 283/108/201 284/100/200
f 285/100/202 286/108/202 287/15/202
f 285/100/202 287/15/202 288/14/202
f 289/7/203 290/6/203 291/71/203
f 289/7/203 291/71/203 292/109/203
f 293/109/204 294/71/204 295/75/204
f 293/109/204 295/75/204 296/110/204
f 297/111/205 298/64/206 299/61/206
f 297/111/205 299/61/206 300/112/205
f 301/112/207 302/61/207 303/13/207
f 301/112/207 303/13/207 304/16/207
f 305/1/208 306/4/209 307/113/209
f 305/1/208 307/113/209 308/17/208
f 309/17/210 310/113/211 311/114/211
f 309/17/210 311/114/211 312/20/210
f 313/31/212 314/115/212 315/116/212
f 313/31/212 315/116/212 316/27/212
f 317/27/213 318/116/213 319/11/213
f 317/27/213 319/11/213 320/10/213
f 321/5/214 322/8/214 323/117/214
f 321/5/214 323/117/214 324/39/214
f 325/39/215 326/117/216 327/118/216
f 325/39/215 327/118/216 328/42/215
f 329/53/217 330/119/217 331/120/217
f 329/53/217 331/120/217 332/49/217
f 333/49/218 334/120/218 335/3/218
f 333/49/218 335/3/218 336/2/218
f 337/33/219 338/83/219 339/77/219
f 337/33/219 339/77/219 340/55/219
